<svg role="img" viewBox="0 0 24 24" width="200" height="200" xmlns="http://www.w3.org/2000/svg" fill="white">
  <title>GitHub</title>
  <path d="M12 0C5.373 0 0 5.373 0 12c0 5.302 3.438 9.8 8.207 11.387.6.113.793-.26.793-.577 0-.285-.01-1.04-.015-2.04-3.338.726-4.042-1.61-4.042-1.61-.546-1.387-1.333-1.756-1.333-1.756-1.09-.745.082-.729.082-.729 1.205.086 1.84 1.238 1.84 1.238 1.07 1.835 2.805 1.305 3.49.997.108-.776.42-1.305.763-1.604-2.665-.305-5.467-1.333-5.467-5.93 0-1.31.465-2.382 1.235-3.22-.135-.303-.54-1.526.105-3.176 0 0 1.005-.322 3.3 1.23.96-.267 1.98-.399 3-.405 1.02.006 2.04.138 3 .405 2.295-1.552 3.3-1.23 3.3-1.23.645 1.65.24 2.873.105 3.176.77.838 1.235 1.91 1.235 3.22 0 4.61-2.805 5.625-5.475 5.92.43.37.81 1.103.81 2.223 0 1.606-.015 2.898-.015 3.293 0 .32.195.694.8.576C20.565 21.795 24 17.295 24 12c0-6.627-5.373-12-12-12z"/>
</svg>
